<svg width="50" height="50" viewBox="0 0 50 50" fill="none" xmlns="http://www.w3.org/2000/svg">
<path d="M38.1467 35.514L33.5051 33.9671L31.8388 30.6344C33.3399 29.1064 34.3822 27.0848 34.7337 24.9761L34.9415 23.7305H36.7188C38.3342 23.7305 39.6484 22.4162 39.6484 20.8008V14.6484C39.6484 6.57129 33.0771 0 25 0C16.9021 0 10.3516 6.55244 10.3516 14.6484V20.8008C10.3516 22.0738 11.1681 23.1594 12.3047 23.5625V24.707C12.3047 26.3225 13.6189 27.6367 15.2344 27.6367H16.092C16.5153 28.5563 17.0633 29.4081 17.7301 30.1732C17.8684 30.3322 18.0126 30.4863 18.1604 30.6362L16.4949 33.9671L11.8532 35.5141C6.45625 37.3137 2.53906 42.9952 2.53906 49.0234C2.53906 49.5628 2.97627 50 3.51562 50H46.4844C47.0236 50 47.4609 49.5628 47.4609 49.0234C47.4609 42.9952 43.5438 37.3137 38.1467 35.514ZM37.6953 20.8008C37.6953 21.3393 37.2572 21.7773 36.7188 21.7773H35.2283C35.4766 19.8545 35.642 17.8083 35.7085 15.793C35.7104 15.7361 35.712 15.6809 35.7138 15.625H37.6953V20.8008ZM13.2812 21.7773C12.7428 21.7773 12.3047 21.3393 12.3047 20.8008V15.625H14.2869C14.2901 15.7269 14.2936 15.8292 14.2974 15.9322C14.2975 15.9357 14.2977 15.9392 14.2978 15.9427C14.3661 17.9028 14.5294 19.8968 14.772 21.7772L13.2812 21.7773ZM15.2344 25.6836C14.6959 25.6836 14.2578 25.2455 14.2578 24.707V23.7305H15.0584L15.2662 24.9765C15.3059 25.2133 15.3546 25.4492 15.4109 25.6836H15.2344ZM14.2595 13.6719H12.3418C12.8364 7.12686 18.2985 1.95312 25 1.95312C31.6717 1.95312 37.1578 7.12617 37.6581 13.6719H35.7406C35.6703 8.27861 31.2784 3.90625 25.8741 3.90625H24.1261C18.7219 3.90625 14.3297 8.27861 14.2595 13.6719ZM24.126 5.85938H25.874C30.2499 5.85938 33.7916 9.43857 33.7891 13.8096C33.7891 14.1169 33.7866 14.3845 33.7814 14.6279C33.7814 14.6311 33.7813 14.6343 33.7813 14.6375L33.1476 8.125C29.8292 7.65117 31.7459 7.9959 29.375 5.625C29.1918 5.44189 20.259 5.625 20 5.625C17.3773 5.625 16.2541 12.9793 16.2541 12.9793C16.2541 12.9793 20.0247 5.85938 24.126 5.85938ZM17.4355 25.6836C16.9467 24.0573 16.3873 19.2722 16.2637 16.2058L17.578 14.4532C18.7852 12.8442 20.6632 11.8445 22.6609 11.7298C25.2896 14.2313 28.6901 15.8833 32.2837 16.3964L33.7214 16.6019C33.6253 18.6414 33.4289 20.6881 33.1476 22.5704L33.1473 22.5724C33.0578 23.1775 32.9873 23.567 32.8072 24.6548C32.29 27.7568 29.9754 30.562 26.9198 31.326C25.6623 31.6399 24.3375 31.6398 23.0807 31.326C21.1728 30.849 19.4233 29.5289 18.2943 27.6367H20.2852C20.6883 28.7733 21.7737 29.5898 23.0469 29.5898H25C26.6187 29.5898 27.9297 28.2789 27.9297 26.6602C27.9297 25.0447 26.6154 23.7305 25 23.7305H23.0469C21.7454 23.7305 20.676 24.5711 20.2835 25.6836H17.4355ZM22.9647 33.3023C23.6346 33.4435 24.3175 33.5156 25 33.5156C25.5343 33.5156 26.0687 33.4709 26.597 33.3842L25 32.508L22.9647 33.3023ZM17.4355 34.8344L20.4313 39.9044C19.5786 38.2722 18.8459 36.5734 18.2449 34.8344L19.4081 32.508L17.4355 34.8344ZM30.4264 32.1771L31.7549 34.8343C31.7549 34.8343 31.3017 29.6957 30.4499 31.326L26.2529 36.5906L30.4264 32.1771ZM22.0703 26.6602C22.0703 26.121 22.5076 25.6836 23.0469 25.6836H25C25.5385 25.6836 21.25 24.9765 21.25 26.875C21.25 28.3694 25.5392 27.6367 25 27.6367H23.0469C22.5084 27.6367 22.0703 27.1986 22.0703 26.6602ZM4.53125 48.0469C4.91826 43.2091 1.29199 50.1949 5.625 48.75L8.75 48.125C8.75 48.125 5.78154 46.1242 6.875 48.0469C6.87686 48.0502 15.4091 48.7468 15.4109 48.75C16.2099 50.1552 19.3086 47.4464 20.2835 48.75L23.2412 48.0469H4.53125ZM25 47.1764L23.6756 45.0501C23.6607 45.0263 23.6449 45.0031 23.6281 44.9807C22.8373 43.9258 22.0996 42.8226 21.4277 41.6934L25 48.0469L28.5802 41.6801C27.9038 42.8175 27.1636 43.9253 26.3721 44.9805C26.3242 45.0442 26.3921 44.9437 25 47.1764ZM26.7588 48.0469L29.375 48.75C30.3542 47.4414 30.625 48.125 30.625 48.125C30.625 48.125 33.1424 48.0555 33.1473 48.0469L46.25 48.125C47.3296 46.2207 45.5024 47.1171 46.25 45.0501L43.125 44.9807C47.4581 46.4256 45.0817 43.2091 45.4688 48.0469H26.7588Z" fill="#18AAF2"/>
<path d="M35.7422 38.6719C35.2031 38.6719 34.7656 39.1094 34.7656 39.6484C34.7656 40.1875 35.2031 40.625 35.7422 40.625C36.2812 40.625 36.7188 40.1875 36.7188 39.6484C36.7188 39.1094 36.2812 38.6719 35.7422 38.6719Z" fill="#26404D"/>
<path d="M38.1467 35.514L33.5051 33.9671L31.8388 30.6344C33.3399 29.1064 34.3822 27.0848 34.7337 24.9761L34.9415 23.7305H36.7188C38.3342 23.7305 39.6484 22.4162 39.6484 20.8008V14.6484C39.6484 6.57129 33.0771 0 25 0C16.9021 0 10.3516 6.55244 10.3516 14.6484V20.8008C10.3516 22.0738 11.1681 23.1594 12.3047 23.5625V24.707C12.3047 26.3225 13.6189 27.6367 15.2344 27.6367H16.092C16.5153 28.5563 17.0633 29.4081 17.7301 30.1732C17.8684 30.3322 18.0126 30.4863 18.1604 30.6362L16.4949 33.9671L11.8532 35.5141C6.45625 37.3137 2.53906 42.9952 2.53906 49.0234C2.53906 49.5628 2.97627 50 3.51562 50H46.4844C47.0236 50 47.4609 49.5628 47.4609 49.0234C47.4609 42.9952 43.5438 37.3137 38.1467 35.514ZM37.6953 20.8008C37.6953 21.3393 37.2572 21.7773 36.7188 21.7773H35.2283C35.4766 19.8545 35.642 17.8083 35.7085 15.793C35.7104 15.7361 35.712 15.6809 35.7138 15.625H37.6953V20.8008ZM13.2812 21.7773C12.7428 21.7773 12.3047 21.3393 12.3047 20.8008V15.625H14.2869C14.2901 15.7269 14.2936 15.8292 14.2974 15.9322C14.2975 15.9357 14.2977 15.9392 14.2978 15.9427C14.2978 15.943 14.2978 15.9433 14.2978 15.9436C14.3661 17.9037 14.5294 19.8968 14.772 21.7772H13.2812V21.7773ZM15.2344 25.6836C14.6959 25.6836 14.2578 25.2455 14.2578 24.707V23.7305H15.0584L15.2662 24.9765C15.3059 25.2133 15.3546 25.4492 15.4109 25.6836H15.2344ZM14.2595 13.6719H12.3418C12.8364 7.12685 18.2985 1.95312 25 1.95312C31.6717 1.95312 37.1578 7.12617 37.6581 13.6719H35.7406C35.6703 8.27861 31.2784 3.90625 25.8741 3.90625H24.1261C18.7219 3.90625 14.3297 8.27861 14.2595 13.6719ZM24.126 5.85938H25.874C30.2499 5.85938 33.7916 9.43857 33.7891 13.8096C33.7891 14.1169 33.7866 14.3845 33.7814 14.6279C33.7814 14.6311 33.7813 14.6343 33.7813 14.6375L32.5599 14.463C29.2415 13.9892 26.1083 12.4226 23.7374 10.0517C23.5542 9.86856 23.3059 9.76562 23.0469 9.76562C20.4242 9.76562 17.9137 10.9605 16.2541 12.9793C16.6631 9.00283 20.0247 5.85938 24.126 5.85938ZM17.4355 25.6836C16.9467 24.0573 16.3873 19.2722 16.2637 16.2058L17.578 14.4532C18.7852 12.8442 20.6632 11.8445 22.6609 11.7298C25.2896 14.2313 28.6901 15.8833 32.2837 16.3964L33.7214 16.6019C33.6253 18.6414 33.4289 20.6881 33.1476 22.5704C33.1475 22.571 33.1474 22.5717 33.1473 22.5724C33.0578 23.1775 32.9873 23.567 32.8072 24.6548C32.29 27.7568 29.9754 30.562 26.9198 31.326C25.6623 31.6399 24.3375 31.6398 23.0807 31.326C21.1728 30.849 19.4233 29.5289 18.2943 27.6367H20.2852C20.6883 28.7733 21.7737 29.5898 23.0469 29.5898H25C26.6187 29.5898 27.9297 28.2789 27.9297 26.6602C27.9297 25.0447 26.6154 23.7305 25 23.7305H23.0469C21.7454 23.7305 20.676 24.5711 20.2835 25.6836H17.4355ZM22.9647 33.3023C23.6346 33.4435 24.3175 33.5156 25 33.5156C25.5343 33.5156 26.0687 33.4709 26.597 33.3842L24.8714 35.2091L22.9647 33.3023ZM23.5288 36.6288L20.4313 39.9044C19.5786 38.2722 18.8459 36.5734 18.2449 34.8344L19.4081 32.508L23.5288 36.6288ZM30.4264 32.1771L31.7549 34.8343C31.1529 36.5763 30.42 38.2756 29.5682 39.9059L26.2529 36.5906L30.4264 32.1771ZM22.0703 26.6602C22.0703 26.121 22.5076 25.6836 23.0469 25.6836H25C25.5385 25.6836 25.9766 26.1217 25.9766 26.6602C25.9766 27.1994 25.5392 27.6367 25 27.6367H23.0469C22.5084 27.6367 22.0703 27.1986 22.0703 26.6602ZM4.53125 48.0469C4.91826 43.2091 8.13789 38.8118 12.4709 37.3669L16.5816 35.997C17.3348 38.0795 18.2678 40.1036 19.3612 42.0263C19.3631 42.0296 19.3648 42.0329 19.3667 42.0361C19.3667 42.0362 19.3668 42.0362 19.3668 42.0363C20.1657 43.4415 21.0649 44.8146 22.0398 46.1183L23.2412 48.0469H4.53125ZM25 47.1764L23.6756 45.0501C23.6607 45.0263 23.6449 45.0031 23.6281 44.9807C22.8373 43.9258 22.0996 42.8226 21.4277 41.6934L24.9104 38.0104L28.5802 41.6801C27.9038 42.8175 27.1636 43.9253 26.3721 44.9805C26.3242 45.0442 26.3921 44.9437 25 47.1764ZM26.7588 48.0469L27.9601 46.1184C28.9393 44.8098 29.8449 43.4256 30.6519 42.0039C30.6567 41.9953 30.6613 41.9865 30.6662 41.9779C30.6668 41.9769 30.6674 41.9759 30.668 41.9748C31.7476 40.0705 32.6708 38.064 33.4184 35.997L37.529 37.3669C41.8621 38.8118 45.0817 43.2091 45.4688 48.0469H26.7588Z" fill="#26404D"/>
<path d="M42.5336 44.0948C41.881 42.7884 40.925 41.6279 39.7691 40.7386C39.3415 40.4096 38.7284 40.4896 38.3996 40.9172C38.0707 41.3447 38.1507 41.9578 38.5782 42.2867C39.5014 42.9969 40.2649 43.924 40.7863 44.9676C41.0278 45.4509 41.6147 45.6455 42.0963 45.4048C42.5788 45.1638 42.7746 44.5773 42.5336 44.0948Z" fill="#26404D"/>
</svg>
